<svg width="120" height="120" viewBox="0 0 120 120" fill="none" xmlns="http://www.w3.org/2000/svg" class="w-full h-auto" data-fg-bvkb387="33.8:41.13178:/src/app/components/assets/FeatureIcons.tsx:743:5:31716:4549:e:svg:etxtetetxtetxtetxtetxte:1" data-fgid-bvkb387=":rns:" data-fg-callsite-d3bl404=""><defs data-fg-bvkb388="33.8:41.13178:/src/app/components/assets/FeatureIcons.tsx:751:7:31891:530:e:defs:ete"><linearGradient id="loveGradient" x1="0%" y1="0%" x2="100%" y2="100%" data-fg-bvkb389="33.8:41.13178:/src/app/components/assets/FeatureIcons.tsx:752:9:31906:252:e:linearGradient:etete"><stop offset="0%" stop-color="#FF6FD8" data-fg-bvkb390="33.8:41.13178:/src/app/components/assets/FeatureIcons.tsx:753:11:31987:40:e:stop"/><stop offset="50%" stop-color="#FF5E9D" data-fg-bvkb391="33.8:41.13178:/src/app/components/assets/FeatureIcons.tsx:754:11:32038:41:e:stop"/><stop offset="100%" stop-color="#FF0080" data-fg-bvkb392="33.8:41.13178:/src/app/components/assets/FeatureIcons.tsx:755:11:32090:42:e:stop"/></linearGradient><filter id="iconGlow" data-fg-bvkb393="33.8:41.13178:/src/app/components/assets/FeatureIcons.tsx:757:9:32167:240:e:filter:ete"><feGaussianBlur stdDeviation="3" result="coloredBlur" data-fg-bvkb394="33.8:41.13178:/src/app/components/assets/FeatureIcons.tsx:758:11:32200:56:e:feGaussianBlur"/><feMerge data-fg-bvkb395="33.8:41.13178:/src/app/components/assets/FeatureIcons.tsx:759:11:32267:122:e:feMerge:ete"><feMergeNode in="coloredBlur" data-fg-bvkb396="33.8:41.13178:/src/app/components/assets/FeatureIcons.tsx:760:13:32289:32:e:feMergeNode"/><feMergeNode in="SourceGraphic" data-fg-bvkb397="33.8:41.13178:/src/app/components/assets/FeatureIcons.tsx:761:13:32334:34:e:feMergeNode"/></feMerge></filter></defs><circle cx="60" cy="60" r="58" fill="url(#loveGradient)" filter="url(#iconGlow)" data-fg-bvkb399="33.8:41.13178:/src/app/components/assets/FeatureIcons.tsx:767:7:32472:83:e:circle"/><circle cx="60" cy="60" r="55" fill="url(#loveGradient)" opacity="0.8" data-fg-bvkb400="33.8:41.13178:/src/app/components/assets/FeatureIcons.tsx:768:7:32562:73:e:circle"/><ellipse cx="60" cy="50" rx="40" ry="25" fill="#FFFFFF" opacity="0.2" data-fg-bvkb402="33.8:41.13178:/src/app/components/assets/FeatureIcons.tsx:771:7:32694:72:e:ellipse"/><g transform="translate(60, 60)" data-fg-bvkb404="33.8:41.13178:/src/app/components/assets/FeatureIcons.tsx:774:7:32806:1090:e:g:xtetxtetxte"><path d="M 0 8 C 0 8 -20 -8 -12 -16 C -8 -20 -4 -20 0 -16 C 4 -20 8 -20 12 -16 C 20 -8 0 8 0 8 Z" fill="#FFFFFF" opacity="0.9" filter="url(#iconGlow)" data-fg-bvkb406="33.8:41.13178:/src/app/components/assets/FeatureIcons.tsx:776:9:32875:410:e:path:e"><animateTransform attributeName="transform" type="scale" values="1;1.15;1" dur="1.5s" repeatCount="indefinite" data-fg-bvkb407="33.8:41.13178:/src/app/components/assets/FeatureIcons.tsx:782:11:33086:183:e:animateTransform"/></path><path d="M 0 6 C 0 6 -16 -6 -10 -13 C -7 -16 -3 -16 0 -13 C 3 -16 7 -16 10 -13 C 16 -6 0 6 0 6 Z" fill="#FF6FD8" opacity="0.4" data-fg-bvkb409="33.8:41.13178:/src/app/components/assets/FeatureIcons.tsx:792:9:33336:285:e:path:e"><animate attributeName="opacity" values="0.2;0.6;0.2" dur="1.5s" repeatCount="indefinite" data-fg-bvkb410="33.8:41.13178:/src/app/components/assets/FeatureIcons.tsx:797:11:33513:92:e:animate"/></path><ellipse cx="-4" cy="-8" rx="3" ry="5" fill="#FFFFFF" opacity="0.6" transform="rotate(-30 -4 -8)" data-fg-bvkb412="33.8:41.13178:/src/app/components/assets/FeatureIcons.tsx:801:9:33667:218:e:ellipse:e"><animate attributeName="opacity" values="0.4;0.8;0.4" dur="2s" repeatCount="indefinite" data-fg-bvkb413="33.8:41.13178:/src/app/components/assets/FeatureIcons.tsx:802:11:33776:90:e:animate"/></ellipse></g><g data-fg-bvkb415="33.8:41.13178:/src/app/components/assets/FeatureIcons.tsx:807:7:33945:1313:e:g:etete"><path d="M 30 40 C 30 40 26 36 28 34 C 29 33 30 33 31 34 C 32 33 33 33 34 34 C 36 36 32 40 32 40 Z" fill="#FFFFFF" opacity="0.6" transform="translate(-2 0)" data-fg-bvkb416="33.8:41.13178:/src/app/components/assets/FeatureIcons.tsx:808:9:33957:406:e:path:ete"><animateTransform attributeName="transform" type="translate" values="0 0; -2 -12; 0 -24" dur="3s" repeatCount="indefinite" data-fg-bvkb417="33.8:41.13178:/src/app/components/assets/FeatureIcons.tsx:809:11:34125:125:e:animateTransform"/><animate attributeName="opacity" values="0;0.7;0" dur="3s" repeatCount="indefinite" data-fg-bvkb418="33.8:41.13178:/src/app/components/assets/FeatureIcons.tsx:810:11:34261:86:e:animate"/></path><path d="M 86 48 C 86 48 82 44 84 42 C 85 41 86 41 87 42 C 88 41 89 41 90 42 C 92 44 88 48 88 48 Z" fill="#FFFFFF" opacity="0.6" transform="translate(0 0)" data-fg-bvkb419="33.8:41.13178:/src/app/components/assets/FeatureIcons.tsx:812:9:34372:434:e:path:ete"><animateTransform attributeName="transform" type="translate" values="0 0; 3 -10; 0 -20" dur="3.5s" repeatCount="indefinite" begin="0.5s" data-fg-bvkb420="33.8:41.13178:/src/app/components/assets/FeatureIcons.tsx:813:11:34539:139:e:animateTransform"/><animate attributeName="opacity" values="0;0.7;0" dur="3.5s" repeatCount="indefinite" begin="0.5s" data-fg-bvkb421="33.8:41.13178:/src/app/components/assets/FeatureIcons.tsx:814:11:34689:101:e:animate"/></path><path d="M 26 78 C 26 78 23 75 25 73 C 26 72 27 72 28 73 C 29 72 30 72 31 73 C 33 75 29 78 29 78 Z" fill="#FFFFFF" opacity="0.5" transform="translate(0 0)" data-fg-bvkb422="33.8:41.13178:/src/app/components/assets/FeatureIcons.tsx:816:9:34815:432:e:path:ete"><animateTransform attributeName="transform" type="translate" values="0 0; -2 8; 0 16" dur="3.2s" repeatCount="indefinite" begin="0.8s" data-fg-bvkb423="33.8:41.13178:/src/app/components/assets/FeatureIcons.tsx:817:11:34982:137:e:animateTransform"/><animate attributeName="opacity" values="0;0.6;0" dur="3.2s" repeatCount="indefinite" begin="0.8s" data-fg-bvkb424="33.8:41.13178:/src/app/components/assets/FeatureIcons.tsx:818:11:35130:101:e:animate"/></path></g><g data-fg-bvkb426="33.8:41.13178:/src/app/components/assets/FeatureIcons.tsx:823:7:35295:959:e:g:etete"><path d="M 90 35 L 91 38 L 94 39 L 91 40 L 90 43 L 89 40 L 86 39 L 89 38 Z" fill="#FFFFFF" opacity="0.8" data-fg-bvkb427="33.8:41.13178:/src/app/components/assets/FeatureIcons.tsx:824:9:35307:357:e:path:ete"><animate attributeName="opacity" values="0.4;1;0.4" dur="1.8s" repeatCount="indefinite" data-fg-bvkb428="33.8:41.13178:/src/app/components/assets/FeatureIcons.tsx:825:11:35423:90:e:animate"/><animateTransform attributeName="transform" type="rotate" from="0 90 39" to="360 90 39" dur="5s" repeatCount="indefinite" data-fg-bvkb429="33.8:41.13178:/src/app/components/assets/FeatureIcons.tsx:826:11:35524:124:e:animateTransform"/></path><path d="M 28 32 L 29 34 L 31 35 L 29 36 L 28 38 L 27 36 L 25 35 L 27 34 Z" fill="#FFFFFF" opacity="0.7" data-fg-bvkb430="33.8:41.13178:/src/app/components/assets/FeatureIcons.tsx:828:9:35673:368:e:path:ete"><animate attributeName="opacity" values="0.4;1;0.4" dur="2s" repeatCount="indefinite" begin="0.4s" data-fg-bvkb431="33.8:41.13178:/src/app/components/assets/FeatureIcons.tsx:829:11:35789:101:e:animate"/><animateTransform attributeName="transform" type="rotate" from="0 28 35" to="360 28 35" dur="6s" repeatCount="indefinite" data-fg-bvkb432="33.8:41.13178:/src/app/components/assets/FeatureIcons.tsx:830:11:35901:124:e:animateTransform"/></path><circle cx="88" cy="80" r="2" fill="#FFFFFF" opacity="0.6" data-fg-bvkb433="33.8:41.13178:/src/app/components/assets/FeatureIcons.tsx:832:9:36050:193:e:circle:e"><animate attributeName="opacity" values="0.3;0.9;0.3" dur="2.2s" repeatCount="indefinite" begin="0.6s" data-fg-bvkb434="33.8:41.13178:/src/app/components/assets/FeatureIcons.tsx:833:11:36120:105:e:animate"/></circle></g></svg>