<svg width="60" height="60" viewBox="0 0 60 60" fill="none" xmlns="http://www.w3.org/2000/svg" class="w-full h-auto" data-fg-fba61="1.37:1.9313:/src/app/components/assets/TabIcons.tsx:153:5:5554:1925:e:svg:xte:1" data-fgid-fba61=":r7j:" data-fg-callsite-d3bl169=""><g data-fg-fba72="1.37:1.9313:/src/app/components/assets/TabIcons.tsx:177:7:6275:1193:e:g:xtetxtetetetetxtete"><path d="M 24 18 L 24 22 C 24 26 26 28 30 28 C 34 28 36 26 36 22 L 36 18" stroke="#8B8BA7" stroke-width="2" stroke-linecap="round" fill="none" fill-opacity="0" data-fg-fba74="1.37:1.9313:/src/app/components/assets/TabIcons.tsx:179:9:6361:263:e:path"/><line x1="20" y1="18" x2="40" y2="18" stroke="#8B8BA7" stroke-width="2" stroke-linecap="round" data-fg-fba76="1.37:1.9313:/src/app/components/assets/TabIcons.tsx:189:9:6670:93:e:line"/><line x1="30" y1="28" x2="30" y2="34" stroke="#8B8BA7" stroke-width="2" stroke-linecap="round" data-fg-fba77="1.37:1.9313:/src/app/components/assets/TabIcons.tsx:190:9:6772:93:e:line"/><line x1="26" y1="34" x2="34" y2="34" stroke="#8B8BA7" stroke-width="2" stroke-linecap="round" data-fg-fba78="1.37:1.9313:/src/app/components/assets/TabIcons.tsx:191:9:6874:93:e:line"/><rect x="24" y="36" width="12" height="6" rx="1" stroke="#8B8BA7" stroke-width="2" fill="none" fill-opacity="0" data-fg-fba79="1.37:1.9313:/src/app/components/assets/TabIcons.tsx:192:9:6976:148:e:rect"/><path d="M 20 18 L 18 18 C 16 18 14 20 14 22 C 14 24 16 26 18 26 L 20 26" stroke="#8B8BA7" stroke-width="2" stroke-linecap="round" fill="none" data-fg-fba81="1.37:1.9313:/src/app/components/assets/TabIcons.tsx:195:9:7166:141:e:path"/><path d="M 40 18 L 42 18 C 44 18 46 20 46 22 C 46 24 44 26 42 26 L 40 26" stroke="#8B8BA7" stroke-width="2" stroke-linecap="round" fill="none" data-fg-fba82="1.37:1.9313:/src/app/components/assets/TabIcons.tsx:196:9:7316:141:e:path"/></g></svg>